<?xml version="1.0" encoding="UTF-8"?>
<svg id="Layer_2" data-name="Layer 2" xmlns="http://www.w3.org/2000/svg" viewBox="0 0 540.74 250.52">
  <defs>
    <style>
      .cls-1 {
        fill: #fff;
        stroke-width: 0px;
      }
    </style>
  </defs>
  <path class="cls-1" d="M200.99,107.68c-.08.04-.13.06-.13.06,0,0,.05-.03.13-.06Z"/>
  <path class="cls-1" d="M527.69,137.95c-2.75-4.71-11.38-18.05-16.09-21.58-4.71-3.53-14.52-9.42-20.01-10.59-5.49-1.18-15.69-9.02-19.62-10.2s-10.59-.39-14.12-1.96c-3.53-1.57-.78-10.2-10.99-12.55-10.2-2.35-29.43-4.71-34.53-7.85-5.1-3.14-8.24-7.85-9.42-4.71-1.18,3.14,2.75,8.24,2.75,8.24,0,0-9.81-5.1-14.12-7.45-4.32-2.35-3.14,4.32-3.14,4.32,0,0-9.42-6.67-18.83-7.45-9.42-.78.39,5.89.39,5.89,0,0-16.48-3.14-16.87-1.18-.39,1.96,3.14,3.92,3.14,3.92,0,0-11.77.39-12.95,3.53-1.18,3.14,1.18,2.75,2.35,3.14s-14.91,7.85-16.09,11.38,3.53,3.53,3.53,3.53c0,0-5.89,5.1-5.89,7.85s0,5.1-2.75,7.06c-2.75,1.96-8.24,7.06-8.63,5.49-.39-1.57-.39-7.45.39-9.81.78-2.35-3.92-5.49-1.57-9.81,2.35-4.32,6.67,1.57,6.67,1.57,0,0,3.14-6.28-1.18-17.26-4.32-10.99,0-8.63,2.35-7.06,2.35,1.57-6.28-11.38-8.24-13.73-1.96-2.35-7.85-9.02-9.42-10.99-1.57-1.96,9.02-3.53,9.02-3.53,0,0-8.63-7.06-12.95-8.63-4.32-1.57-6.67-2.35-6.67-2.35,0,0,3.53-4.71,5.49-5.49,1.96-.78-1.57-1.18-9.81-6.08-8.24-4.9-4.71-6.87-16.09-6.87s-16.48-3.14-29.43-3.14-9.02,2.35-14.52,0c-5.49-2.35-9.42-3.92-18.05-2.35-8.63,1.57-25.7,12.36-25.7,12.36-.78,0-20.4,0-26.09.78-5.69.78-21.19,2.94-31.98,6.47-10.79,3.53-20.6,9.81-21.38,12.75s-5.69,9.22-3.92,11.38c1.77,2.16,2.75.2,3.92,0,1.18-.2,4.51-3.33,14.12-2.75s11.38.2,20.4,1.96c9.02,1.77,20.4-1.77,24.72-1.18,4.32.59,10.59.64,11.77,2.97s3.14,3.9-3.53,3.51-7.85-1.37-10.59-2.35c-2.75-.98-6.28-.78-4.71.98,1.57,1.77,4.32,1.37,5.69,2.55,1.37,1.18,3.73,1.57,3.73,3.33s1.96,1.77-3.33,2.55-8.04,1.37-15.89,1.37-9.42-1.57-16.09,0c-6.67,1.57-9.61,1.37-15.11,2.55-5.49,1.18-4.51,0-8.44,2.94s-2.75,3.33.78,4.51c3.53,1.18,5.69,2.35,11.38,2.75,5.69.39,4.12,1.18,14.71,1.57s7.06.59,17.07,1.96c10,1.37,8.04.98,14.71.98s8.44.2,14.52,1.37c6.08,1.18,8.24.2,8.44,2.94s.39,2.55,0,4.12c-.39,1.57,1.37-1.18,3.14,0,1.77,1.18-.98,2.94,0,6.47,0,0,4.9-3.14,8.63.98,3.41,3.77-1.04,6.21-1.83,6.61,1.11-.54,9.23-4.33,8.5.06-.78,4.71-6.67,11.11-7.26,17.52-.59,6.41-12.75-4.38-12.75-4.38,0,0,.51-2.64,2.12-2.98-3.44-1.17-10.62-4.24-8.4-6.04,3.14-2.55,4.71-4.71,4.71-4.71,0,0-7.45-6.47-17.46-9.02s-20.79-.98-25.11-.39-3.92,1.57-10.2.78-15.69-1.77-21.77-.78c-6.08.98-18.83,9.81-21.38,11.57-2.55,1.77-3.73,1.37-8.83,1.18-5.1-.2-30.21,7.85-40.61,13.14-10.4,5.3-21.38,12.36-23.93,15.5-2.55,3.14-3.14,3.33-4.32,7.65-1.18,4.32-4.32,8.44-1.77,10.2,2.55,1.77,2.35-.2,6.47,0s6.08,1.29,14.71.74c8.63-.55,8.83-1.5,15.11.15,6.28,1.66,12.95,4.21,19.03,4.4s8.63.78,15.69.98,4.9,1.57,12.36,1.37c7.45-.2,7.45.78,9.42,2.55,1.96,1.77,5.89,5.3,7.45,8.04,1.57,2.75-.73,2.55-2.23,4.9-1.5,2.35-7.19,9.42-6.6,12.16s3-.98,6.6,0,4.78,1.18,2.62,6.47-1.91,6.08-2.62,9.02c-.71,2.94,1.84,2.94,3.21,1.96,1.37-.98.2,6.87-1.57,8.83-1.77,1.96-5.3,8.24-5.89,10.59-.59,2.35-1.96,5.3-2.55,6.08-.59.78,0,1.18,8.04-2.94,8.04-4.12,8.63-4.71,9.42-5.3.78-.59-.39,2.55-1.37,4.32-.98,1.77-1.57,8.63-1.96,9.42-.39.78-1.37,4.32,4.32,0s9.61-4.9,9.61-4.9c0,0-.78,2.75-.78,3.92s.39,1.96,3.33.2c2.94-1.77,6.08-3.92,6.08-3.92,0,0,3.33-1.37,2.16,3.73-1.18,5.1,4.51,1.37,6.67.2,2.16-1.18,2.35-5.1,2.35-5.1,0,0,.98,6.47,3.14,6.87,2.16.39,6.08-3.92,8.83-5.1,2.75-1.18,6.67-2.75,7.65-2.94s-3.14,3.14-.98,3.92c2.16.78,11.38-1.37,11.38-1.37,0,0-7.85,3.33-1.77,3.33s10.4-2.94,10.4-2.94c0,0-4.9,6.76-2.16,6.22,2.75-.54,8.04-5.83,10.4-7.01,2.35-1.18.98,3.73,3.92,3.92s10.79-2.94,10.79-2.94c0,0-4.12,5.49.78,4.9,4.9-.59,10-8.04,12.55-5.69,2.55,2.35,6.47-.39,10-.39s5.49.78,5.1,3.92,3.14.39,9.81-1.96,16.09-3.14,13.34.39-4.51,7.41.49,4.88c5-2.53,3.83-4.1,8.93-4.88,5.1-.78,10.59-3.53,10.2-.39,0,.06-.02.12-.03.18.88-.45,2.35-.95,4.74-1.36,9.02-1.57,2.35,8.63,6.67,5.49,4.32-3.14,5.89-7.45,11.38-6.28,5.49,1.18,7.06,12.56,11.38,8.05,4.32-4.51,2.35-4.51,8.24-6.08,5.89-1.57,7.85.39,6.28,3.14-1.57,2.75,2.75,9.42,6.28,1.18,3.53-8.24,3.92-7.45,9.42-1.57s11.38,5.55,11.38,5.55c0,0-4.71-2.02-5.89-9.08-1.18-7.06,11.38,5.89,11.38,5.89,0,0,2.75-4.71,0-9.81-2.75-5.1,7.85,7.85,12.16,10.2s-2.35-13.34-2.35-13.34c0,0,3.92,8.63,12.55,12.16,0,0,1.18-4.32,0-7.06s8.24,7.06,14.91,7.45c6.67.39-3.14-17.66-2.35-22.76.78-5.1,4.32,7.85,9.81,11.38s-.39-15.3,1.96-20.4c2.35-5.1,8.24,11.38,10.99,12.16,2.75.78,2.75-12.55,0-15.69s11.77,7.45,11.77,7.45c0,0-.39-18.44-10.2-25.89,0,0-1.57-17.66-3.14-20.79-1.57-3.14,5.89,3.53,5.89,3.53l.78-10.99s4.32,4.71,5.1,7.45c.78,2.75,2.75-10.2,1.57-13.34-1.18-3.14,3.53,3.92,3.53,3.92,0,0,3.92-4.32,3.53-12.16,0,0-.39-5.1,5.1-3.92,5.49,1.18,4.32,4.32,12.55,2.35,8.24-1.96,8.24-3.14,13.34-3.14s8.24,0,18.44.39c10.2.39,5.1,2.75,13.34,0,8.24-2.75,9.42-3.14,12.16-1.96,2.75,1.18,6.28,2.75,8.63,4.32,2.35,1.57,4.71-1.57,1.96-6.28ZM116.45,125.26c-4.08,0-7.39-3.31-7.39-7.39s3.31-7.39,7.39-7.39,7.39,3.31,7.39,7.39-3.31,7.39-7.39,7.39ZM212.88,37.27c-3.93,0-7.11-3.18-7.11-7.11s3.18-7.11,7.11-7.11,7.11,3.18,7.11,7.11-3.18,7.11-7.11,7.11ZM433.92,99.81c-3.93,0-7.11-3.18-7.11-7.11s3.18-7.11,7.11-7.11,7.11,3.18,7.11,7.11-3.18,7.11-7.11,7.11Z"/>
  <path class="cls-1" d="M193.02,118.14c-.54-.27-1.01-.32-1.41-.24,1.43.48,2.21.64,1.41.24Z"/>
  <path class="cls-1" d="M284.4,237.79c-2.38,1.21-.38,2.07,0,0h0Z"/>
</svg>